<svg viewBox="0 0 82 106" xmlns="http://www.w3.org/2000/svg">
  <path d="M75.14 73.016c-2.156 3.562-4.617 7.242-7.382 11.039-2.766 3.797-5.695 7.265-8.79 10.406-3.093 3.14-6.28 5.742-9.562 7.805-3.281 2.062-6.562 3.093-9.843 3.093-3.282 0-5.649-1.101-7.102-3.304-1.453-2.203-2.133-4.664-2.04-7.383 0-1.219.118-2.297.352-3.234.235-.938.493-1.782.774-2.532s.586-1.523.914-2.32c.328-.797.633-1.711.914-2.742.375-1.219.398-2.32.07-3.305-.328-.984-.726-1.851-1.195-2.602a14.555 14.555 0 0 1-2.883 2.461c-1.078.704-2.414 1.055-4.008 1.055-1.125 0-2.156-.539-3.093-1.617-.938-1.078-1.407-2.414-1.407-4.008 0-1.312.305-2.39.914-3.234.61-.844 1.313-1.5 2.11-1.969a8.457 8.457 0 0 1 2.46-.984c.845-.188 1.548-.282 2.11-.282.281 0 .867.047 1.758.141.89.094 1.851.234 2.883.422 3.375-2.719 5.789-5.18 7.242-7.383 1.453-2.203 1.57-4.195.352-5.977-.75-1.218-1.688-1.851-2.813-1.898-1.125-.047-2.297.234-3.516.844a20.25 20.25 0 0 0-3.586 2.32A71.71 71.71 0 0 0 27.61 60.5c-1.875 1.875-3.96 4.102-6.257 6.68a7859.06 7859.06 0 0 0-5.696 6.398 449.77 449.77 0 0 0-1.969 8.86c-.562 2.718-1.195 5.789-1.898 9.21l-2.18 10.618a7.879 7.879 0 0 1-1.757.632c-.61.141-1.149.258-1.618.352-.562.094-1.125.14-1.687.14-.75 0-1.453-.023-2.11-.07-.656-.047-1.195-.28-1.617-.703-.422-.422-.656-1.101-.703-2.039-.047-.937.211-2.25.774-3.937.75-2.438 1.687-5.696 2.812-9.774a577.097 577.097 0 0 0 3.516-13.43c1.219-4.875 2.46-9.96 3.726-15.257a2783.46 2783.46 0 0 0 3.586-15.188 502.45 502.45 0 0 0 2.883-13.078c.797-3.89 1.383-6.96 1.758-9.21.281-2.438.562-4.782.844-7.032.187-1.875.304-3.727.351-5.555.047-1.828-.07-3.21-.351-4.148.468-.469 1.125-.89 1.968-1.266a12.341 12.341 0 0 1 2.813-.844c1.031-.28 2.25-.515 3.656-.703 1.594-.187 2.93-.234 4.008-.14 1.078.093 1.851.562 2.32 1.406.563.937.68 2.508.352 4.71-.328 2.204-1.008 5.274-2.04 9.212-1.312 5.062-2.648 9.68-4.007 13.851a680.612 680.612 0 0 1-3.938 11.742 3408.543 3408.543 0 0 0-3.656 10.618 150.687 150.687 0 0 0-3.164 10.476c1.875-2.719 4.219-5.601 7.031-8.648 2.813-3.047 6-5.555 9.563-7.524 3.75-1.968 6.844-2.953 9.281-2.953 3 0 5.156 1.008 6.469 3.024 1.312 2.015 1.922 4.382 1.828 7.101-.094 2.157-.633 4.149-1.617 5.977a25.408 25.408 0 0 1-3.586 5.062 27.6 27.6 0 0 1-4.5 4.008 190.548 190.548 0 0 1-4.078 2.813c1.312.75 2.46 1.757 3.445 3.023.984 1.266 1.43 2.836 1.336 4.711-.094 2.531-.586 4.758-1.477 6.68-.89 1.922-1.336 3.68-1.336 5.273.094 1.219.352 2.11.774 2.672.422.563 1.336.844 2.742.844 2.531 0 5.18-1.078 7.945-3.235 2.766-2.156 5.368-4.64 7.805-7.453a146.79 146.79 0 0 0 6.75-8.367c2.063-2.766 3.656-4.805 4.781-6.117 1.594-1.688 2.93-2.133 4.008-1.336 1.078.797.961 2.273-.351 4.43zm-1.546 17.296c2.437-.375 4.383-.164 5.836.633 1.453.797 2.086 2.274 1.898 4.43-.094 1.219-.586 2.367-1.476 3.445-.891 1.078-1.97 2.04-3.235 2.883a16.748 16.748 0 0 1-4.008 1.969c-1.406.469-2.625.703-3.656.703-1.875 0-3.539-.422-4.992-1.266-1.453-.843-2.086-2.203-1.898-4.078a6.429 6.429 0 0 1 1.195-3.304c.703-.985 1.594-1.852 2.672-2.602 1.078-.75 2.297-1.36 3.656-1.828a21.713 21.713 0 0 1 4.008-.984z" fill="currentColor" fill-rule="evenodd"/>
</svg>