<svg viewBox="0 0 57 38" xmlns="http://www.w3.org/2000/svg">
  <path d="M55.140625,5.015625 C52.1589629,10.9789493 50.5234513,12.2577935 47.7578125,16.0546875 C44.9921737,19.8515815 42.0625155,23.3202968 38.96875,26.4609375 C35.8749845,29.6015782 32.6875164,32.2031147 29.40625,34.265625 C26.1249836,36.3281353 22.8437664,37.359375 19.5625,37.359375 C16.2812336,37.359375 13.9140698,36.2578235 12.4609375,34.0546875 C11.0078052,31.8515515 10.3281245,29.3906386 10.421875,26.671875 C10.421875,25.4531189 10.5390613,24.3750047 10.7734375,23.4375 C11.0078137,22.4999953 11.2656236,21.6562538 11.546875,20.90625 C11.8281264,20.1562462 12.1328109,19.3828165 12.4609375,18.5859375 C12.7890641,17.7890585 13.0937486,16.8750052 13.375,15.84375 C13.7500019,14.6249939 13.7734391,13.5234424 13.4453125,12.5390625 C13.1171859,11.5546826 12.7187523,10.6875038 12.25,9.9375 C11.4062458,10.8750047 10.4453179,11.695309 9.3671875,12.3984375 C8.28905711,13.101566 6.95313297,13.453125 5.359375,13.453125 C4.23436938,13.453125 3.20312969,12.9140679 2.265625,11.8359375 C1.32812031,10.7578071 0.859375,9.42188297 0.859375,7.828125 C0.859375,6.51561844 1.16405945,5.43750422 1.7734375,4.59375 C2.38281555,3.74999578 3.08593352,3.09375234 3.8828125,2.625 C4.67969148,2.15624766 5.49999578,1.82812594 6.34375,1.640625 C7.18750422,1.45312406 7.89062219,1.359375 8.453125,1.359375 C8.73437641,1.359375 11.3548584,1.359375 12.9419556,1.640625 C14.5290527,1.921875 18.71875,3.890625 18.71875,3.890625 C20.0312566,4.64062875 21.1796826,5.64843117 22.1640625,6.9140625 C23.1484424,8.17969383 23.5937505,9.74999063 23.5,11.625 C23.4062495,14.1562627 22.914067,16.3828029 22.0234375,18.3046875 C21.132808,20.2265721 20.6875,21.984367 20.6875,23.578125 C20.7812505,24.7968811 21.0390604,25.6874972 21.4609375,26.25 C21.8828146,26.8125028 22.796868,27.09375 24.203125,27.09375 C26.7343877,27.09375 29.3827987,26.0156358 32.1484375,23.859375 C34.9140763,21.7031142 37.5156128,19.2187641 39.953125,16.40625 C42.3906372,13.5937359 44.6406147,10.8047013 46.703125,8.0390625 C48.7656353,5.27342367 50.3593694,3.23438156 51.484375,1.921875 C53.078133,0.234366562 54.4140571,-0.210941484 55.4921875,0.5859375 C56.5703179,1.38281648 56.0261504,3.2445743 55.140625,5.015625 Z" fill="currentColor" fill-rule="evenodd" />
</svg>